<svg xmlns="http://www.w3.org/2000/svg" xmlns:xlink="http://www.w3.org/1999/xlink" viewBox="2980 14 129.551 48.01">
  <defs>
    <style>
      .cls-1 {
        fill: url(#linear-gradient);
      }

      .cls-2 {
        fill: #252628;
      }

      .cls-2, .cls-3 {
        stroke: rgba(0,0,0,0);
      }

      .cls-3 {
        fill: #fff;
      }
    </style>
    <linearGradient id="linear-gradient" x1="0.5" x2="0.5" y2="1" gradientUnits="objectBoundingBox">
      <stop offset="0" stop-color="#9ee044"/>
      <stop offset="1" stop-color="#64a44d"/>
    </linearGradient>
  </defs>
  <g id="logo" transform="translate(2963 18)">
    <circle id="Ellipse_187" data-name="Ellipse 187" class="cls-1" cx="24.005" cy="24.005" r="24.005" transform="translate(17 -4)"/>
    <path id="Path_6691" data-name="Path 6691" class="cls-2" d="M-74.82.18a5.418,5.418,0,0,0,4.26-1.86l-1.185-1.2A4.116,4.116,0,0,1-74.76-1.515,3.551,3.551,0,0,1-78.225-5.25,3.533,3.533,0,0,1-74.76-8.985a4.176,4.176,0,0,1,2.94,1.3l1.185-1.365a5.473,5.473,0,0,0-4.11-1.635A5.313,5.313,0,0,0-80.16-5.25,5.288,5.288,0,0,0-74.82.18ZM-68.175,0h1.74l5.3-7.65V0h1.815V-10.5H-61.05l-5.31,7.665V-10.5h-1.815Zm16.89.18a5.418,5.418,0,0,0,4.26-1.86l-1.185-1.2a4.116,4.116,0,0,1-3.015,1.365A3.551,3.551,0,0,1-54.69-5.25a3.533,3.533,0,0,1,3.465-3.735,4.176,4.176,0,0,1,2.94,1.3L-47.1-9.045a5.473,5.473,0,0,0-4.11-1.635,5.313,5.313,0,0,0-5.415,5.43A5.288,5.288,0,0,0-51.285.18ZM-42.06,0h1.86V-8.79h3.33V-10.5h-8.52v1.71h3.33Zm7.59,0h7.86V-1.65h-6.015V-4.47h5.265V-6.12h-5.265V-8.85h5.94V-10.5H-34.47Zm10.5,0h1.815V-7.5l3.285,4.92h.06L-15.5-7.53V0h1.845V-10.5h-1.965L-18.81-5.535-22.005-10.5H-23.97ZM-11.4,0h1.89l1.08-2.535h4.965L-2.4,0H-.45L-5.07-10.575H-6.78Zm3.645-4.17,1.8-4.2,1.815,4.2Z" transform="translate(146.237 25.5)"/>
    <path id="Path_6690" data-name="Path 6690" class="cls-3" d="M4.8.18a5.276,5.276,0,0,0,5.325-5.43,5.319,5.319,0,0,0-5.4-5.43A5.429,5.429,0,0,0,.7-9.03l1.05,1.26A4.324,4.324,0,0,1,4.74-9.015a3.462,3.462,0,0,1,3.4,2.94H3.45V-4.5H8.16A3.46,3.46,0,0,1,4.74-1.47,4.223,4.223,0,0,1,1.665-2.835L.48-1.62A5.464,5.464,0,0,0,4.8.18ZM12.81,0h1.845V-3.045l1.635-1.68L19.875,0H22.11L17.55-5.985,21.915-10.5H19.65l-5,5.28V-10.5H12.81ZM28.695.18a5.38,5.38,0,0,0,5.5-5.43,5.337,5.337,0,0,0-5.475-5.43,5.38,5.38,0,0,0-5.5,5.43A5.337,5.337,0,0,0,28.695.18Zm.03-1.7a3.6,3.6,0,0,1-3.57-3.735,3.556,3.556,0,0,1,3.54-3.735,3.6,3.6,0,0,1,3.57,3.735A3.556,3.556,0,0,1,28.725-1.515Z" transform="translate(29.237 25.5)"/>
  </g>
</svg>
